<svg id="Layer_1" data-name="Layer 1" xmlns="http://www.w3.org/2000/svg" viewBox="0 0 729.27 312.63"><defs><style>.cls-1{fill:#fff;}</style></defs><title>Artboard 1</title><g id="IhuhJm"><path class="cls-1" d="M182.3,210.6c0-5.5,0-11,0-16.5,0-3.66.12-7.33.31-11,.14-2.69,2.72-4,5.14-2.71a40.12,40.12,0,0,1,3.83,1.81c1.62,1.07,3.4,2,4.24,4a2.76,2.76,0,0,0,1.85,1.44c.42.06,1.16-.92,1.46-1.57,1.64-3.47,3.17-7,4.77-10.47s3.44-6.41,7.3-7.66c.86-.28,1.49-1.18,2.29-1.7,1.34-.87,2.62-1.73,4.42-1.66,1.21,0,2.42-.86,3.68-1a14.69,14.69,0,0,1,9.05,2c2.83,1.51,6.18,2.1,8.39,4.69.66.78,1.59,1.7,1.61,2.58.07,3,.42,6.17-.54,8.85a25,25,0,0,0-1.77,7c-.07,1-1.12,1.93-1.75,2.88-2.26,3.44-4.13,7.24-6.89,10.22-3.67,4-7.91,7.46-13.23,9.2a10,10,0,0,1-2.29.25c-2.43.19-2.65.32-2.32,2.8a8.83,8.83,0,0,0,1.31,3.74c1.56,2.28,3.38,4.38,5.1,6.55s4.6,2.24,7,2.81c3.69.89,7.42.06,10.92-1.55s6.31-4.37,9-7.24c4.62-4.9,7.6-10.84,11.14-16.42,1.38-2.17,2.21-4.69,3.38-7,2-4,4.61-7.8,6-12s3.75-7.87,5.06-12.06,3.4-8,4.88-12c1.23-3.4,1.89-7,3.12-10.41A16.31,16.31,0,0,0,280,142a3.89,3.89,0,0,1,.34-2c1.7-3.09,1.54-6.52,1.92-9.85s.11-6.9,1.24-10c1.35-3.67,1.18-7.25,1.23-10.92a8.7,8.7,0,0,1,.36-2c1.33-5.2,2.74-10.38,4-15.6.54-2.22.58-4.56,1.2-6.74.93-3.22,3.88-4.88,6.24-6.83,2-1.62,6.2,1.32,6.3,4.43.14,4-.14,8.08-.27,12.12,0,1.05-.32,2.11-.27,3.16a17.36,17.36,0,0,1-1.94,8.93,3.13,3.13,0,0,0-.37,1.37c0,5.55-1.84,10.75-2.83,16.12-.1.57-.24,1.14-.3,1.71a72.05,72.05,0,0,1-2.51,11.76c-1,3.76-.86,7.82-1.3,11.74-.23,2.09-.71,4.15-1,6.24s-.27,4.42-.56,6.61c-.35,2.75-.86,5.48-1.31,8.22a23.77,23.77,0,0,0-.68,4.21,126.72,126.72,0,0,0,.71,12.67c.41,3.39-.63,7,.4,10.49-1.57,3.69.4,7.31.23,11-.13,2.78.24,5.59.26,8.39,0,2.51-.12,5,1.21,7.3a6.76,6.76,0,0,1,.53,3.65c-.21,2.75,1,4.95,2.06,7.34,1.53,3.49,2.53,7.21,3.78,10.83a4,4,0,0,0,.79,1.72c3.18,2.69,3.48,2.58,5.55-.9a23.65,23.65,0,0,0,3-11.62A113,113,0,0,1,309,221.2c1.51-9.33.95-18.68,1.09-28,0-2.61.07-5.22,0-7.82a18.76,18.76,0,0,1,2-9.2,9.87,9.87,0,0,0,.51-1.93c1-3.77,3.63-4.46,7.41-3.13,2.77,1,3.68,2.66,3.86,5.57.15,2.49,1.39,4.93,2.26,7.36.13.35.9.67,1.37.66,1.72,0,3.58.21,5.13-.37,5.23-2,10.67-.46,15.93-1.29a6.66,6.66,0,0,0,3.48-1.67c1.75-1.73,3-4,4.8-5.64,3-2.78,5.75-5.89,10.21-6.44a6.93,6.93,0,0,0,3-1.48,16.7,16.7,0,0,1,11.06-3.29,6.42,6.42,0,0,1,5.24,2.9,8.38,8.38,0,0,0,1.61,1.27c.32-.65.68-1.29,1-2,1.14-2.7.36-5.41.23-8.18-.34-6.84-1-13.84.06-20.52,1-6,1.1-12,1.57-18a122.93,122.93,0,0,1,2.39-13.9c.83-4.24,1.75-8.47,2.8-12.66a27,27,0,0,1,2-4.8q2.46-5.23,5-10.41a4.62,4.62,0,0,1,4.37-2.77,16.74,16.74,0,0,1,3.75,0c1.25.29,2.83.75,3.47,1.69,1.36,2,2.58,4.23,2.43,6.84q-.59,10.39-1.21,20.79c-.33,5.32-2.18,10.28-3.49,15.38-.79,3-1,6.26-1.76,9.3a43.3,43.3,0,0,0-1.74,10.76c0,2.19-1.06,4.41-1.78,6.56-.91,2.69-2,5.31-2.94,8-2.21,6.56-1.62,13.38-1.57,20.11,0,5.18.68,10.36,1.09,15.54a5.39,5.39,0,0,0,.55,2.49c1.34,2,1.35,4.15,1.35,6.39a15.57,15.57,0,0,0,.55,3.06c.51,2.46.85,5,1.59,7.35,1.05,3.38,2.34,6.69,3.68,10,.46,1.13,3.51.91,4.2-.29a24.32,24.32,0,0,0,3.55-9.68,5.67,5.67,0,0,1,.56-2.51c2.3-3.43,3.11-7.42,3.84-11.29.62-3.31,2.17-6.13,3.36-9.13,1.76-4.46,2.19-9.13,2.74-13.8.51-4.29.92-8.6,1.64-12.85a11.54,11.54,0,0,1,2-4.41c1.56-2.24,4.45-1.84,6.13.73a6.54,6.54,0,0,1,1,2.1c1,4.48,2.38,8.88,2.29,13.57-.06,3.34.17,6.68.26,10a2.71,2.71,0,0,1,0,.86c-1.67,5.32-1.36,10.82-1.33,16.28a19.79,19.79,0,0,0,1.19,4.9c.06.2.51.51.63.45.4-.18,1-.46,1.05-.79a12,12,0,0,0,.18-2.59,94.84,94.84,0,0,1,2.53-19.11,17.6,17.6,0,0,0,.43-3.72,36.74,36.74,0,0,1,1.85-12.76c.7-2,1.69-3.9,4-4.63a7.79,7.79,0,0,0,1-.6c4.53-2.3,4.83-2.23,8.4,1.36.74.74,1.74,1.22,2.44,2s2,1.83.84,2.88c-.65.57-2.1.38-3.16.26-.58-.07-1.05-.78-1.64-1.06a7.74,7.74,0,0,0-2.55-.94c-3.06-.26-3.15-.12-3.37,3a8.6,8.6,0,0,1-.27,2c-2,6.31-2.36,12.77-2,19.34.15,3,.66,6.18-1,9a1.54,1.54,0,0,0-.07.57c-.47,4.18-.8,8.38-1.44,12.53-.47,3-1.15,5.9-3.44,8.35a7.64,7.64,0,0,1-10.73-.26c-1.68-1.92-3.39-4-3.33-6.86,0-.44-.71-1.25-1.08-1.25-.63,0-1.63.38-1.81.86-1,2.64-2.45,5-2.8,8.07-.28,2.43-2.44,4.65-3.82,6.92a15.56,15.56,0,0,1-1.61,2c-1.53,1.77-3.1,3.46-5.8,3a2.71,2.71,0,0,0-1.44,0c-4.48,1.91-7.15-1.3-9.8-3.77-2.94-2.76-4.59-6.45-6.41-10.09-2.83-5.66-3.67-11.66-4.78-17.68-.63-3.4-1.15-6.82-1.77-10.22a8.59,8.59,0,0,0-.77-1.79c-.53.38-1.29.64-1.56,1.15a43.05,43.05,0,0,0-2.34,5.24c-1.21,3.33-2.28,6.72-3.41,10.08l-2.48,7.37a5.63,5.63,0,0,1-.48,1.35c-3.19,4.76-6.26,9.62-9.67,14.22-2.54,3.43-6.26,5.32-10.4,6.31a.74.74,0,0,1-.29,0c-5-.86-10.47-.64-14.43-4.43a12,12,0,0,1-3.35-8.3c-.17-5.11-.18-10.24,0-15.35.05-1.54,1-3,1.41-4.57.43-1.86.66-3.77.92-5.66a.74.74,0,0,0-1.38-.5c-.93,1.44-2,2.78-1.86,4.71.2,3,.36,5.84-.94,8.78-1,2.2-.72,4.9-1.31,7.31-1.09,4.46-2.34,8.89-3.63,13.3-.75,2.55-5.26,5.74-7.9,5.81-4.73.12-6.38-1.05-8-5.64-.44-1.28-.88-2.56-1.39-3.8-.12-.29-.55-.66-.81-.63s-.59.47-.66.78a4.55,4.55,0,0,0,0,1.43c.45,5.79.68,11.51-1.44,17.13-1.27,3.37-1.91,7-3,10.41-.82,2.62-3,4.28-5.14,5.63a9.77,9.77,0,0,1-12.13-1.19A44.62,44.62,0,0,1,285.15,246,43.56,43.56,0,0,1,281,231.13c-.16-1.62-.75-3.19-1-4.81-.31-2.46-.44-4.94-.69-7.41-.23-2.2-.52-4.39-.78-6.59-.34-2.85-.85-5.7-1-8.57-.16-4.15,0-8.3,0-12.46a9.9,9.9,0,0,0-.08-2.59c-.18-.66-.73-1.53-1.27-1.67s-1.44.55-1.7,1.1c-1.9,4-3.68,8-5.48,12-.2.44-.16,1.11-.48,1.34-2.45,1.8-2.5,4.91-4,7.18-3.71,5.56-7.54,11-11.33,16.56a32.21,32.21,0,0,1-8,8.11c-2.18,1.53-4.49,2.88-6.77,4.27a2.69,2.69,0,0,1-1.36.34,19.05,19.05,0,0,0-8.45,2.1,3.41,3.41,0,0,1-2.27.1c-3.07-.95-6.29-1.68-9.11-3.16a24.86,24.86,0,0,1-7.93-5.92,36.22,36.22,0,0,0-6.43-5.67,11,11,0,0,1-4.09-6.68,70.34,70.34,0,0,1-1.81-11.9c-.2-2.7-1.93-4.83-4.4-6.27-1.05-.62-1.87-.35-2.06.51a18.2,18.2,0,0,0-.43,5c.12,2,.7,3.94.92,5.93.25,2.2.38,4.42.47,6.63a27.22,27.22,0,0,1-.19,3.41c-.06.67-.29,1.33-.3,2,0,3.26,0,6.52-.06,9.78a14.4,14.4,0,0,1-6.24,11.48c-3.85,2.88-10.19.18-11.5-4.51a5,5,0,0,0-.66-1.54c-2-2.83-4-5.61-6-8.43s-3.22-5.6-1.65-9.12c.49-1.11.14-2.65,0-4-.21-2.09-.49-4.18-.9-6.24s-1.05-4.06-1.5-6.11a21.5,21.5,0,0,1-.71-4.51c0-10.33.17-20.67.1-31,0-4-.53-8.06-.83-12.1-.05-.67-.4-1.41-.22-2,1.91-6.13-.44-12.2-.27-18.33.2-6.88-.77-13.8-1.24-20.7a2.65,2.65,0,0,0-.17-1.13c-.45-.75-1-1.44-1.54-2.15-.47.79-1.26,1.55-1.35,2.38-.5,4.6-.31,9.34-1.36,13.79-1.33,5.67,0,11.82-3.17,17.12-.18.3-.1.75-.17,1.13-.74,4.33-1.56,8.66-2.21,13-.3,2-.22,4-.4,6.06-.24,2.67-.58,5.34-.87,8a8.06,8.06,0,0,1-.12,1.15c-1.4,5.37-2.93,10.71-4.19,16.12-.89,3.82-1.37,7.74-2.13,11.59-.31,1.58-.94,3.1-1.3,4.67a13.07,13.07,0,0,0-.34,3.12,11.51,11.51,0,0,1-1.48,5.79c-1.19,2.22-2.39,4.53-2.06,7.25a3.08,3.08,0,0,1-.19,2c-2.14,2.86-1.46,6.29-2.15,9.44-.39,1.78-1.53,3.4-2.26,5.12a33.69,33.69,0,0,1-7.47,11.62,5.34,5.34,0,0,1-2.7,1.37c-4.62.7-8-.62-10.4-5.17a24.56,24.56,0,0,1-2.89-11c-.13-4.15,0-8.31-.07-12.46,0-3.56.31-7.13-.87-10.62a11,11,0,0,1-.23-3.45c0-8.69-.31-17.41.18-26.07.41-7.22.41-14.5,1.22-21.64.6-5.29.57-10.54.92-15.81.33-5,.82-9.95,1.18-14.92.14-1.9,0-3.84.24-5.72.41-2.75,1.17-5.45,1.66-8.19a22.55,22.55,0,0,0,.27-4.3c0-.42-.58-.83-.89-1.25-.33.28-.87.51-1,.85-1.56,5.43-3.83,10.61-4.82,16.25-.77,4.4-2.54,8.63-3.87,12.93-.08.27-.32.5-.39.77a101.84,101.84,0,0,0-2.73,10.82c-.89,6.09-3.23,11.73-5.32,17.39-1.41,3.82-2.17,7.8-3.69,11.58-1.71,4.26-3,8.68-5.63,12.54a15,15,0,0,0-2.73,7.79c-.11,1.88-1.17,3.8-2.13,5.52a58.77,58.77,0,0,0-5.06,11.52,66.42,66.42,0,0,1-3.52,8.16c-.68,1.46-1.56,2.82-2.3,4.25-1.76,3.41-3.49,6.84-5.24,10.25-2.06,4-4,8.09-6.24,12-1.79,3.16-3.94,6.11-5.89,9.18-.77,1.21-1.36,2.53-2.1,3.75-.94,1.56-1.88,3.13-3,4.6s-2.64,2.6-2.93,4.7c-.12.9-1.21,1.68-1.9,2.48-3.57,4.13-7.36,8.1-12,11-2.13,1.35-4.46,2.82-7.34,2.86a9.89,9.89,0,0,1-5.57-2c-1.69-1.06-1.64-4.48-.13-6.22a21.57,21.57,0,0,0,2.16-2.94,3.17,3.17,0,0,1,3-1.85A4.78,4.78,0,0,0,26,280c1.4-1.63,3.45-2.68,4.93-4.26a56.44,56.44,0,0,0,3.88-5.27c2.56-3.47,5.1-7,7.72-10.39C46.36,255,49,249.3,51.73,243.58,53.78,239.24,56,235,58.4,230.8a132,132,0,0,0,8.27-17.68c1.12-2.85,2.51-5.6,3.79-8.39.16-.35.53-.67.54-1,.22-5.69,3.89-10,6.24-14.71,2.51-5.08,3.76-10.48,5.41-15.81,1.39-4.49,2.94-8.92,4.38-13.39a20.73,20.73,0,0,0,.48-2.55,16.58,16.58,0,0,1,.67-3.38c2.53-6,3.31-12.53,5.91-18.56,2.11-4.89,3.19-10.21,4.73-15.34a2.35,2.35,0,0,0,.23-.83c-.43-3.9,1.48-7,3.21-10.26a14.67,14.67,0,0,0,1.37-5.57c.38-4.55,1.81-8.79,3.22-13.07.54-1.63.68-3.39,1.13-5.05.59-2.18,1.38-4.3,2-6.48,1.08-4,2.07-8,3.13-12,.32-1.21.44-2.68,1.21-3.5a4.17,4.17,0,0,0,1-3.7c-.44-3.47.83-6.57,1.71-9.8a28.24,28.24,0,0,0,1.23-7.62c-.05-4.75,1.75-9,3-13.42.54-1.93,3.55-3,5.46-2.39.54.18,1.11.29,1.66.46A5,5,0,0,1,132,31.62c0,4.14.09,8.25-1.29,12.3-.76,2.24-.67,4.75-1.1,7.11-.65,3.55-1.42,7.08-2.12,10.63a11.77,11.77,0,0,0-.19,2c-.11,5.11-.09,10.23-.34,15.33a59.24,59.24,0,0,1-1.16,7.09,26,26,0,0,0-.6,3.41c-.15,4.13-.06,8.28-.33,12.41-.34,5.19-.92,10.36-1.44,15.53-.4,3.93-1.27,7.85-1.21,11.77.11,8.06-1.32,16-.75,24.12a19.35,19.35,0,0,1-.87,8.57c-.39,1,0,2.43.32,3.62.36,1.53.68,2.92-.09,4.48a8.7,8.7,0,0,0-.64,3.37c-.18,3.56-.24,7.13-.38,10.7-.29,7.61-.87,15.21-.8,22.81.06,5.84.93,11.68,1.45,17.52.24,2.69.48,5.38.74,8.07a5.46,5.46,0,0,0,.4,2c.13.26,1,.4,1.3.23a1.91,1.91,0,0,0,.7-1.19c.83-3.25,1.6-6.52,2.43-9.77.37-1.46.83-2.9,1.21-4.36.72-2.75,1.39-5.51,2.11-8.26q.8-3.06,1.65-6.11c.15-.55.59-1.08.58-1.61-.13-6.55,2.38-12.61,3.73-18.86,1.71-7.94,2.75-16,4.23-23.93.42-2.27.16-4.69.77-6.89a41.89,41.89,0,0,0,2-12.44c0-1.2.65-2.41,1-3.62a4.12,4.12,0,0,0,.32-1.93c-.83-2.84.41-5.19,1.32-7.76.85-2.38.86-5.06,1.26-7.6.89-5.68,2-11.33,2.61-17a63.23,63.23,0,0,1,2-8.68c.8-3.24.95-6.66,2-9.81a21.06,21.06,0,0,1,3.93-7.47c3-3.34,8-.89,9.68,2.18,1.26,2.27,1.18,4.81,1.49,7.28a144,144,0,0,1,1.39,20.45,30.14,30.14,0,0,0,.58,8c1.17,4.47.89,9,1,13.45a1.92,1.92,0,0,0,.07.57c2.67,7.6,1.46,15.49,1.73,23.27.13,4,0,7.92.06,11.88a3.25,3.25,0,0,0,0,.87c2.08,7,.68,14.2,1.06,21.3.24,4.43.3,8.86.5,13.29a11.07,11.07,0,0,0,.57,2.81,13.61,13.61,0,0,1,.35,4.47,79,79,0,0,0,1,10.55c.09.75.78,1.54.63,2.18-.71,3.13.94,5.59,2,8.26.56,1.41,1.53,1.53,2.76,1.43,1.57-.13,1.13-1.33,1.13-2.18,0-5.6,0-11.2,0-16.81Zm176.63,12.75.09.1-.13-.06c4.06-1.71,6.75-5,9-8.48a94.27,94.27,0,0,0,4.43-8.37,57.35,57.35,0,0,0,2.53-5.17c1.05-2.67,1.73-5.5,2.88-8.13,2.54-5.78,5.52-11.38,7-17.59.1-.43.13-.88.19-1.32-.55,0-1.31-.23-1.62,0q-2.89,2.53-5.59,5.27c-.63.64-.9,1.65-1.55,2.27-3.39,3.24-7.82,4.87-11.67,7.41-1.1.73-2.47,1.32-3.17,2.34-2.66,3.9-4.79,8.07-5.2,12.92a29,29,0,0,1-.89,3.93,23,23,0,0,0-.77,3.6c-.13,2-.05,4,0,6.07C354.49,221.43,355.67,222.78,358.93,223.35ZM226.1,175.43c-1.52,2-4.29.79-6.77,1.29a2.61,2.61,0,0,0-1.14.85,25.63,25.63,0,0,0-6.75,11.75c-.54,2.24-.9,4.52-1.36,6.77-.29,1.37.15,2,1.57,2.51,3.24,1.18,5.7-.37,7.79-2.25a37.47,37.47,0,0,0,10.45-16.27C230.67,177.71,229.09,175.38,226.1,175.43Zm105.08,25c.1-2.38-.61-4.2-2.73-5.39s-2.45-.79-2.92,1.47c-1.21,6,1.46,11.57,1.31,17.41a.86.86,0,0,0,.2.54c.3.35.64.66,1,1a4.42,4.42,0,0,0,.61-1.15c.38-2,.67-4,1-6C330.14,205.73,330.67,203.1,331.18,200.47ZM407.92,98l-.31-.05c0-1.54,0-3.09,0-4.63,0-.31-.32-.62-.49-.92-.35.28-.82.49-1,.86a4,4,0,0,0-.18,1.42c-.2,2.4-.19,4.83-.63,7.19-.68,3.66-1.77,7.24-2.44,10.9a32.78,32.78,0,0,0-.25,6c0,.47.49.93.76,1.4a4.34,4.34,0,0,0,.8-1,27.47,27.47,0,0,0,1.56-4.89c.44-2.85.49-5.76.87-8.62C406.91,103.11,407.46,100.57,407.92,98Z"/><path class="cls-1" d="M541.92,189.68c0-1.55.06-3.09,0-4.63a7.89,7.89,0,0,0-.57-2.18c-.07-.2-.52-.46-.67-.4a1.24,1.24,0,0,0-.71.71c-.7,3.88-1.35,7.76-2,11.65-.86,5.19-2.79,9.8-7.24,12.94a10,10,0,0,1-3.38,1.22c-.73.18-1.56-.08-2.31.05-4.26.75-6.53-2-8.55-5-1.39-2.06-3.48-2.68-5.61-1.37a47.87,47.87,0,0,1-4.09,2.64c-4.22,2-8.75,1.92-13.17,1.16-1.53-.26-3-1.64-4.2-2.87a10.27,10.27,0,0,0-5.27-3,15.43,15.43,0,0,1-8.13-5.55,6.41,6.41,0,0,1-1.26-3.68,35.23,35.23,0,0,0-4-14.91,7,7,0,0,1-.72-2.72,2.36,2.36,0,0,1,.79-1.9,2.28,2.28,0,0,1,2.11.36,8,8,0,0,1,2,3.27,19.63,19.63,0,0,0,3.87,8.42c.62.73,1,1.62,1.63,2.38a20.29,20.29,0,0,0,1.44,1.55c.63-.65,1.54-1.19,1.85-2a22.16,22.16,0,0,0,1.35-5,34.41,34.41,0,0,1,3.14-9.24,119.48,119.48,0,0,0,4.53-12.1,45.59,45.59,0,0,1,7.48-13.48c1.8-2.35,3.54-4.76,5.42-7A16.81,16.81,0,0,1,509,136c5.73-4,12.75-1,14.18,5.94a4.86,4.86,0,0,0,.33,1.4c3.13,5.52,1.83,11.41,1.45,17.22,0,.38-.1.77-.11,1.15-.22,5.78-.56,11.56-.6,17.34,0,3.75.38,7.5.6,11.26.08,1.39.51,3.17,1.83,3.16,1.58,0,1.59-1.82,1.54-3.22a9.49,9.49,0,0,1,.11-2.3c1-5,2.11-10,3.23-15a17.71,17.71,0,0,1,1.11-3c1.91-4.48,3.58-9.09,5.87-13.37.95-1.78,3.1-3,4.95-4.12.59-.34,2.27.43,2.94,1.16a10.71,10.71,0,0,1,2.14,3.92c.6,1.91.75,3.91,2.12,5.59a5.76,5.76,0,0,1,.78,3c.39,4.61.72,9.22,1,13.84.09,1.34-.08,2.71.07,4a6.68,6.68,0,0,0,.89,1.94c.55-.43,1.36-.75,1.62-1.31,2.37-5.16,4.43-10.46,7-15.5a31.75,31.75,0,0,1,5.49-7.32c2-2.13,7-.49,8,2.34.8,2.15,1.78,4.24,2.53,6.41a33.56,33.56,0,0,1,1,4.41c.48,2.43.79,4.91,1.41,7.31a2.43,2.43,0,0,0,3.26,1.88c3.87-1.39,7.78-2.74,10.7-5.87.39-.42,1-.73,1.22-1.21,1.28-2.79,4.25-3.4,6.43-5,1.77-1.3,4.19-.15,5.7,2.38a31.62,31.62,0,0,1,1.39,2.85c1.53,3.26,4.28,4.32,7.51,2.85,3.48-1.59,7.14-2.94,9.7-6a62.4,62.4,0,0,0,4.36-5.77c1.27-1.92,2.71-3.43,5.1-3.81.4-.06.76-.45,1.13-.7a4.45,4.45,0,0,1,1.18-.78c3.59-.88,6-3.53,8.66-5.76a3.44,3.44,0,0,1,4-.51c1.37.68,1.6,2,1.44,3.5a16.87,16.87,0,0,0-.11,3.47,7.54,7.54,0,0,0,.82,3.23,8.87,8.87,0,0,1,1.46,5.19,33.52,33.52,0,0,0,2.29,12.34,50.38,50.38,0,0,1,1.34,6.14,10.72,10.72,0,0,0,.67,2.09c.52,1.14,1.2,2.2,1.68,3.36,1.34,3.28,2.15,3.88,5.47,3.19a44.53,44.53,0,0,0,5.31-1.83c1.37-.47,2.67-1,3.43-2.38.23-.43.93-.65,1.45-.89,5.06-2.34,9.19-6,13.64-9.27,5.74-4.21,11.47-8.58,18.24-11.22,1.3-.51,2.31-1.71,3.56-2.4.67-.37,1.91-.7,2.3-.37a4,4,0,0,1,1.3,2.64,3.62,3.62,0,0,1-1.9,3.29,58.21,58.21,0,0,0-7.61,5.48c-3.55,3-6.79,6.47-10.36,9.49-3.25,2.75-6.9,5-10.12,7.82a66,66,0,0,1-8.17,6.06c-3.72,2.33-7.71,4.4-12.06,5-2.31.32-4.81-.74-7.22-1.19-.75-.14-1.54-.63-2.22-.5-3.46.67-4.77-1.76-6.06-4.12a33.74,33.74,0,0,1-3.24-9.39A5.65,5.65,0,0,0,645,193.6c-.48-.63-1-.75-1.6,0-2.87,3.72-6.94,2.8-10.58,2.18-2.31-.4-3.62-2.9-5-4.8-.1-.14-.05-.38-.12-.56-1.47-4-1.44-3.94-5.47-2.66a51.26,51.26,0,0,1-6.77,1.48c-3.29.58-5.93-1.26-8.63-2.64-3.54-1.81-4.81-1.85-7.61.87-3.5,3.42-7.85,5.41-12.18,7.41a5.72,5.72,0,0,1-3.42.18c-3-.68-6.19-1.22-9-2.53a7,7,0,0,1-3.89-6.32c-.12-2.67-.64-5.32-1-8,0-.31-.38-.57-.59-.86-.3.22-.72.37-.86.66-1,2-2,4-2.75,6-1,2.59-1.7,5.25-2.49,7.9a71,71,0,0,0-2.28,8.17,17.2,17.2,0,0,1-4.11,8.12,6.86,6.86,0,0,1-4.1,1.78,8.62,8.62,0,0,1-7.39-2.55,8,8,0,0,1-1.67-4.18c-.75-4.51-1.29-9.06-1.91-13.59Zm-30.81-11.51c0-1.74.08-2.91,0-4.05s-.89-1.41-1.61-.73a30.52,30.52,0,0,0-2.79,3.34c-2.39,3-4.82,5.93-7.12,9a44.64,44.64,0,0,0-3.39,5.31c-.82,1.48-.43,4.32.48,5.16,1.31,1.21,3.27,1.31,5.34.12,1.32-.76,2.42-1.94,3.8-2.53,3.25-1.4,4.21-4.31,4.75-7.26A64.42,64.42,0,0,0,511.11,178.17Zm-7.55-13.25a8.88,8.88,0,0,0,1.09-.86c2.24-2.58,4.86-4.88,5.59-8.5a11.33,11.33,0,0,1,1.5-2.76,40.07,40.07,0,0,0,2.1-4.1,5.37,5.37,0,0,0-.11-2.13c-.75.25-1.73.27-2.22.77-4.54,4.6-6.33,10.61-8.29,16.52C503.16,164.09,503.4,164.42,503.56,164.93ZM637.27,180a4.72,4.72,0,0,0,0,1.41,11.31,11.31,0,0,0,.9,1.55c.43-.32,1.1-.55,1.23-1a19.71,19.71,0,0,0,1-4.31c.08-1-.7-1.23-1.61-.77A2.74,2.74,0,0,0,637.27,180Z"/><path class="cls-1" d="M468.58,168.11c.57,1,1.22,1.69,1.27,2.41,0,.4-.94.86-1.46,1.3a6.49,6.49,0,0,1-1.17-2C467.14,169.42,467.92,168.88,468.58,168.11Z"/></g></svg>